<?xml version="1.0" standalone="no"?>
<!DOCTYPE svg PUBLIC "-//W3C//DTD SVG 20010904//EN"
 "http://www.w3.org/TR/2001/REC-SVG-20010904/DTD/svg10.dtd">
<svg version="1.0" xmlns="http://www.w3.org/2000/svg"
 width="700.000000pt" height="700.000000pt" viewBox="0 0 700.000000 700.000000"
 preserveAspectRatio="xMidYMid meet">
<metadata>
Created by potrace 1.11, written by Peter Selinger 2001-2013
</metadata>
<g transform="translate(0.000000,700.000000) scale(0.100000,-0.100000)"
fill="#000000" stroke="none">
<path d="M3317 5720 c-373 -94 -573 -398 -487 -736 25 -95 67 -168 140 -241
100 -101 166 -139 485 -278 377 -164 459 -219 504 -340 33 -88 28 -207 -14
-289 -64 -126 -191 -196 -390 -212 -202 -16 -437 68 -610 217 -38 32 -71 59
-75 59 -4 0 -44 -44 -89 -97 l-83 -98 56 -52 c118 -110 286 -201 456 -249 125
-34 362 -45 485 -21 292 55 502 234 565 483 47 184 9 385 -99 522 -90 113
-192 175 -519 316 -122 53 -257 113 -299 133 -86 42 -182 125 -207 178 -40 84
-40 196 1 282 41 87 160 161 293 183 190 32 394 -25 560 -156 31 -24 59 -44
62 -44 5 0 128 145 142 168 17 28 -109 130 -241 196 -134 67 -228 88 -403 92
-129 3 -168 0 -233 -16z"/>
<path d="M880 4555 l0 -1145 145 0 145 0 0 365 0 365 191 225 c105 124 194
225 199 225 4 0 160 -265 346 -590 l339 -590 164 0 163 0 -14 23 c-103 163
-809 1390 -805 1400 3 7 161 203 351 435 190 232 346 424 346 427 0 3 -73 4
-162 3 l-163 -3 -475 -572 -475 -573 -3 575 -2 575 -145 0 -145 0 0 -1145z"/>
<path d="M4450 5580 l0 -120 345 0 345 0 0 -1025 0 -1025 145 0 145 0 0 1025
0 1025 345 0 345 0 0 120 0 120 -835 0 -835 0 0 -120z"/>
<path d="M5373 2596 c-176 -43 -317 -180 -377 -365 -93 -286 -42 -617 125
-804 184 -207 528 -224 733 -36 149 136 213 323 203 589 -6 156 -21 222 -78
339 -69 141 -192 241 -340 276 -77 18 -194 18 -266 1z m243 -143 c157 -52 249
-191 274 -414 24 -214 -29 -422 -138 -534 -64 -67 -133 -98 -227 -103 -104 -5
-173 20 -248 88 -106 97 -158 243 -158 445 -1 273 95 456 271 518 60 21 165
21 226 0z"/>
<path d="M940 1935 l0 -655 75 0 75 0 0 655 0 655 -75 0 -75 0 0 -655z"/>
<path d="M1460 1935 l0 -655 76 0 76 0 -5 518 c-3 284 -9 532 -12 550 -13 59
9 33 69 -81 32 -61 171 -309 310 -549 l251 -438 83 0 82 0 0 655 0 655 -76 0
-76 0 6 -507 c3 -280 9 -527 12 -550 3 -24 2 -43 -2 -43 -5 0 -40 60 -78 133
-38 72 -177 320 -308 550 l-240 417 -84 0 -84 0 0 -655z"/>
<path d="M2760 1936 l0 -656 75 0 75 0 0 258 0 259 173 6 c190 7 257 20 349
69 70 37 112 82 147 158 21 45 26 73 29 160 3 90 1 113 -18 164 -27 71 -87
139 -152 172 -90 46 -156 55 -425 61 l-253 6 0 -657z m551 496 c99 -39 142
-107 141 -227 -1 -84 -12 -125 -47 -171 -57 -75 -173 -107 -370 -102 l-120 3
-3 250 c-1 137 0 256 3 263 4 12 36 13 173 10 140 -4 176 -8 223 -26z"/>
<path d="M3890 1936 l0 -656 80 0 80 0 0 280 0 281 122 -3 121 -3 156 -275
156 -275 92 -3 92 -3 -164 281 c-91 155 -165 286 -165 291 0 5 6 9 14 9 30 0
156 73 187 107 17 21 44 62 58 93 23 49 26 67 26 165 -1 99 -4 116 -28 167
-43 88 -114 141 -234 174 -44 12 -123 17 -325 21 l-268 5 0 -656z m550 504
c102 -38 150 -109 150 -222 0 -78 -23 -131 -78 -180 -61 -56 -117 -68 -304
-68 l-158 0 0 246 0 246 178 -4 c109 -3 190 -10 212 -18z"/>
</g>
</svg>
